<mxfile host="app.diagrams.net" agent="Mozilla/5.0 (X11; Linux x86_64) AppleWebKit/537.36 (KHTML, like Gecko) Chrome/139.0.0.0 Safari/537.36" version="28.1.1">
  <diagram name="Página-1" id="SZ0ILt-MnRuhKP7tvZcQ">
    <mxGraphModel dx="3141" dy="3650" grid="1" gridSize="10" guides="1" tooltips="1" connect="1" arrows="1" fold="1" page="1" pageScale="1" pageWidth="2339" pageHeight="3300" math="0" shadow="0">
      <root>
        <mxCell id="0" />
        <mxCell id="1" parent="0" />
        <mxCell id="BLztsqFxMzqI4fTjxYnj-75" value="" style="edgeStyle=orthogonalEdgeStyle;rounded=0;orthogonalLoop=1;jettySize=auto;html=1;" parent="1" source="BLztsqFxMzqI4fTjxYnj-72" edge="1">
          <mxGeometry relative="1" as="geometry">
            <mxPoint x="1140" y="560" as="targetPoint" />
            <mxPoint x="1060" y="560" as="sourcePoint" />
            <Array as="points">
              <mxPoint x="1100" y="560" />
              <mxPoint x="1100" y="561" />
            </Array>
          </mxGeometry>
        </mxCell>
        <mxCell id="SR1jivzEfv13dKiSNGAI-2" value="Tercer taller&amp;nbsp;&lt;div&gt;PROYECTO DE INVESTIGACION&lt;/div&gt;" style="rounded=1;whiteSpace=wrap;html=1;" parent="1" vertex="1">
          <mxGeometry x="350" y="-20" width="300" height="60" as="geometry" />
        </mxCell>
        <mxCell id="BLztsqFxMzqI4fTjxYnj-1" value="&amp;nbsp;ID_Proyecto_Investigacion" style="whiteSpace=wrap;html=1;align=center;" parent="1" vertex="1">
          <mxGeometry x="430" y="160" width="140" height="40" as="geometry" />
        </mxCell>
        <mxCell id="BLztsqFxMzqI4fTjxYnj-2" value="Código_Proyecto" style="ellipse;whiteSpace=wrap;html=1;align=center;fontStyle=4;" parent="1" vertex="1">
          <mxGeometry x="260" y="160" width="100" height="40" as="geometry" />
        </mxCell>
        <mxCell id="BLztsqFxMzqI4fTjxYnj-3" value="Fecha_inicio" style="ellipse;whiteSpace=wrap;html=1;align=center;" parent="1" vertex="1">
          <mxGeometry x="390" y="60" width="100" height="40" as="geometry" />
        </mxCell>
        <mxCell id="BLztsqFxMzqI4fTjxYnj-4" value="Fecha_fin" style="ellipse;whiteSpace=wrap;html=1;align=center;" parent="1" vertex="1">
          <mxGeometry x="270" y="210" width="100" height="40" as="geometry" />
        </mxCell>
        <mxCell id="BLztsqFxMzqI4fTjxYnj-5" value="Nombre" style="ellipse;whiteSpace=wrap;html=1;align=center;" parent="1" vertex="1">
          <mxGeometry x="260" y="80" width="100" height="40" as="geometry" />
        </mxCell>
        <mxCell id="BLztsqFxMzqI4fTjxYnj-6" value="Acronimo" style="ellipse;whiteSpace=wrap;html=1;align=center;" parent="1" vertex="1">
          <mxGeometry x="510" y="60" width="100" height="40" as="geometry" />
        </mxCell>
        <mxCell id="BLztsqFxMzqI4fTjxYnj-7" value="Presupuesto" style="ellipse;whiteSpace=wrap;html=1;align=center;" parent="1" vertex="1">
          <mxGeometry x="640" y="80" width="100" height="40" as="geometry" />
        </mxCell>
        <mxCell id="BLztsqFxMzqI4fTjxYnj-8" value="programa_I+D" style="ellipse;whiteSpace=wrap;html=1;align=center;" parent="1" vertex="1">
          <mxGeometry x="640" y="160" width="100" height="40" as="geometry" />
        </mxCell>
        <mxCell id="BLztsqFxMzqI4fTjxYnj-9" value="Descripcion&amp;nbsp;" style="ellipse;whiteSpace=wrap;html=1;align=center;" parent="1" vertex="1">
          <mxGeometry x="640" y="210" width="100" height="40" as="geometry" />
        </mxCell>
        <mxCell id="BLztsqFxMzqI4fTjxYnj-13" value="" style="endArrow=none;html=1;rounded=0;exitX=1;exitY=0.5;exitDx=0;exitDy=0;entryX=0;entryY=0.5;entryDx=0;entryDy=0;" parent="1" source="BLztsqFxMzqI4fTjxYnj-1" target="BLztsqFxMzqI4fTjxYnj-8" edge="1">
          <mxGeometry relative="1" as="geometry">
            <mxPoint x="540" y="170" as="sourcePoint" />
            <mxPoint x="650" y="220" as="targetPoint" />
          </mxGeometry>
        </mxCell>
        <mxCell id="BLztsqFxMzqI4fTjxYnj-14" value="" style="endArrow=none;html=1;rounded=0;exitX=0.5;exitY=1;exitDx=0;exitDy=0;entryX=0;entryY=0.5;entryDx=0;entryDy=0;" parent="1" source="BLztsqFxMzqI4fTjxYnj-1" target="BLztsqFxMzqI4fTjxYnj-9" edge="1">
          <mxGeometry relative="1" as="geometry">
            <mxPoint x="470" y="250" as="sourcePoint" />
            <mxPoint x="630" y="250" as="targetPoint" />
          </mxGeometry>
        </mxCell>
        <mxCell id="BLztsqFxMzqI4fTjxYnj-16" value="" style="endArrow=none;html=1;rounded=0;entryX=0;entryY=0.5;entryDx=0;entryDy=0;exitX=0.5;exitY=0;exitDx=0;exitDy=0;" parent="1" source="BLztsqFxMzqI4fTjxYnj-1" target="BLztsqFxMzqI4fTjxYnj-7" edge="1">
          <mxGeometry relative="1" as="geometry">
            <mxPoint x="470" y="250" as="sourcePoint" />
            <mxPoint x="630" y="250" as="targetPoint" />
          </mxGeometry>
        </mxCell>
        <mxCell id="BLztsqFxMzqI4fTjxYnj-18" value="" style="endArrow=none;html=1;rounded=0;exitX=1;exitY=0.5;exitDx=0;exitDy=0;" parent="1" source="BLztsqFxMzqI4fTjxYnj-4" edge="1">
          <mxGeometry relative="1" as="geometry">
            <mxPoint x="470" y="220" as="sourcePoint" />
            <mxPoint x="500" y="200" as="targetPoint" />
            <Array as="points" />
          </mxGeometry>
        </mxCell>
        <mxCell id="BLztsqFxMzqI4fTjxYnj-19" value="" style="endArrow=none;html=1;rounded=0;exitX=1;exitY=0.5;exitDx=0;exitDy=0;entryX=0;entryY=0.5;entryDx=0;entryDy=0;" parent="1" source="BLztsqFxMzqI4fTjxYnj-2" target="BLztsqFxMzqI4fTjxYnj-1" edge="1">
          <mxGeometry relative="1" as="geometry">
            <mxPoint x="470" y="220" as="sourcePoint" />
            <mxPoint x="630" y="220" as="targetPoint" />
          </mxGeometry>
        </mxCell>
        <mxCell id="BLztsqFxMzqI4fTjxYnj-20" value="" style="endArrow=none;html=1;rounded=0;exitX=1;exitY=0.5;exitDx=0;exitDy=0;" parent="1" source="BLztsqFxMzqI4fTjxYnj-5" edge="1">
          <mxGeometry relative="1" as="geometry">
            <mxPoint x="470" y="220" as="sourcePoint" />
            <mxPoint x="500" y="160" as="targetPoint" />
          </mxGeometry>
        </mxCell>
        <mxCell id="BLztsqFxMzqI4fTjxYnj-23" value="ID_Profesor" style="whiteSpace=wrap;html=1;align=center;shadow=1;" parent="1" vertex="1">
          <mxGeometry x="760" y="460" width="100" height="40" as="geometry" />
        </mxCell>
        <mxCell id="BLztsqFxMzqI4fTjxYnj-24" value="Telefono" style="ellipse;whiteSpace=wrap;html=1;align=center;shadow=1;" parent="1" vertex="1">
          <mxGeometry x="900" y="390" width="100" height="40" as="geometry" />
        </mxCell>
        <mxCell id="BLztsqFxMzqI4fTjxYnj-26" value="Apellidos" style="ellipse;whiteSpace=wrap;html=1;align=center;shadow=1;" parent="1" vertex="1">
          <mxGeometry x="900" y="440" width="100" height="40" as="geometry" />
        </mxCell>
        <mxCell id="BLztsqFxMzqI4fTjxYnj-27" value="Especialización&amp;nbsp;" style="ellipse;whiteSpace=wrap;html=1;align=center;shadow=1;" parent="1" vertex="1">
          <mxGeometry x="900" y="540" width="100" height="40" as="geometry" />
        </mxCell>
        <mxCell id="BLztsqFxMzqI4fTjxYnj-29" value="Despacho" style="ellipse;whiteSpace=wrap;html=1;align=center;shadow=1;" parent="1" vertex="1">
          <mxGeometry x="900" y="490" width="100" height="40" as="geometry" />
        </mxCell>
        <mxCell id="BLztsqFxMzqI4fTjxYnj-37" value="" style="endArrow=none;html=1;rounded=0;entryX=0;entryY=0.5;entryDx=0;entryDy=0;shadow=1;" parent="1" target="BLztsqFxMzqI4fTjxYnj-27" edge="1">
          <mxGeometry relative="1" as="geometry">
            <mxPoint x="860" y="480" as="sourcePoint" />
            <mxPoint x="890" y="490" as="targetPoint" />
          </mxGeometry>
        </mxCell>
        <mxCell id="BLztsqFxMzqI4fTjxYnj-38" value="" style="endArrow=none;html=1;rounded=0;entryX=0;entryY=0.5;entryDx=0;entryDy=0;shadow=1;" parent="1" target="BLztsqFxMzqI4fTjxYnj-29" edge="1">
          <mxGeometry relative="1" as="geometry">
            <mxPoint x="860" y="480" as="sourcePoint" />
            <mxPoint x="780" y="590" as="targetPoint" />
            <Array as="points" />
          </mxGeometry>
        </mxCell>
        <mxCell id="BLztsqFxMzqI4fTjxYnj-39" value="" style="endArrow=none;html=1;rounded=0;entryX=0;entryY=0.5;entryDx=0;entryDy=0;shadow=1;" parent="1" target="BLztsqFxMzqI4fTjxYnj-26" edge="1">
          <mxGeometry relative="1" as="geometry">
            <mxPoint x="860" y="480" as="sourcePoint" />
            <mxPoint x="845" y="530" as="targetPoint" />
          </mxGeometry>
        </mxCell>
        <mxCell id="BLztsqFxMzqI4fTjxYnj-40" value="" style="endArrow=none;html=1;rounded=0;entryX=0;entryY=0.5;entryDx=0;entryDy=0;shadow=1;" parent="1" target="BLztsqFxMzqI4fTjxYnj-24" edge="1">
          <mxGeometry relative="1" as="geometry">
            <mxPoint x="860" y="480" as="sourcePoint" />
            <mxPoint x="820" y="560" as="targetPoint" />
          </mxGeometry>
        </mxCell>
        <mxCell id="BLztsqFxMzqI4fTjxYnj-45" value="Publicación&amp;nbsp;" style="whiteSpace=wrap;html=1;align=center;" parent="1" vertex="1">
          <mxGeometry x="140" y="460" width="100" height="40" as="geometry" />
        </mxCell>
        <mxCell id="BLztsqFxMzqI4fTjxYnj-46" value="Volumen" style="ellipse;whiteSpace=wrap;html=1;align=center;" parent="1" vertex="1">
          <mxGeometry x="-430" y="660" width="100" height="40" as="geometry" />
        </mxCell>
        <mxCell id="BLztsqFxMzqI4fTjxYnj-47" value="Número&amp;nbsp;" style="ellipse;whiteSpace=wrap;html=1;align=center;" parent="1" vertex="1">
          <mxGeometry x="-430" y="710" width="100" height="40" as="geometry" />
        </mxCell>
        <mxCell id="BLztsqFxMzqI4fTjxYnj-48" value="Titulo&amp;nbsp;" style="ellipse;whiteSpace=wrap;html=1;align=center;" parent="1" vertex="1">
          <mxGeometry x="-20" y="420" width="100" height="40" as="geometry" />
        </mxCell>
        <mxCell id="BLztsqFxMzqI4fTjxYnj-49" value="&lt;u&gt;Num_Publicacion&lt;/u&gt;" style="ellipse;whiteSpace=wrap;html=1;align=center;" parent="1" vertex="1">
          <mxGeometry x="-20" y="360" width="100" height="40" as="geometry" />
        </mxCell>
        <mxCell id="BLztsqFxMzqI4fTjxYnj-50" value="Tipo" style="ellipse;whiteSpace=wrap;html=1;align=center;" parent="1" vertex="1">
          <mxGeometry x="-20" y="480" width="100" height="40" as="geometry" />
        </mxCell>
        <mxCell id="BLztsqFxMzqI4fTjxYnj-57" value="" style="endArrow=none;html=1;rounded=0;entryX=0;entryY=0.5;entryDx=0;entryDy=0;" parent="1" target="BLztsqFxMzqI4fTjxYnj-81" edge="1">
          <mxGeometry relative="1" as="geometry">
            <mxPoint x="860" y="480" as="sourcePoint" />
            <mxPoint x="810" y="290" as="targetPoint" />
          </mxGeometry>
        </mxCell>
        <mxCell id="BLztsqFxMzqI4fTjxYnj-58" value="" style="endArrow=none;html=1;rounded=0;exitX=1;exitY=0.5;exitDx=0;exitDy=0;" parent="1" source="BLztsqFxMzqI4fTjxYnj-48" edge="1">
          <mxGeometry relative="1" as="geometry">
            <mxPoint x="150" y="340" as="sourcePoint" />
            <mxPoint x="140" y="480" as="targetPoint" />
          </mxGeometry>
        </mxCell>
        <mxCell id="BLztsqFxMzqI4fTjxYnj-59" value="" style="endArrow=none;html=1;rounded=0;exitX=1;exitY=0.5;exitDx=0;exitDy=0;entryX=0;entryY=0.5;entryDx=0;entryDy=0;" parent="1" source="BLztsqFxMzqI4fTjxYnj-50" target="BLztsqFxMzqI4fTjxYnj-45" edge="1">
          <mxGeometry relative="1" as="geometry">
            <mxPoint x="430" y="490" as="sourcePoint" />
            <mxPoint x="590" y="490" as="targetPoint" />
          </mxGeometry>
        </mxCell>
        <mxCell id="BLztsqFxMzqI4fTjxYnj-61" value="Doctor" style="rounded=1;arcSize=10;whiteSpace=wrap;html=1;align=center;" parent="1" vertex="1">
          <mxGeometry x="1150" y="480" width="100" height="40" as="geometry" />
        </mxCell>
        <mxCell id="BLztsqFxMzqI4fTjxYnj-62" value="No_Doctor" style="rounded=1;arcSize=10;whiteSpace=wrap;html=1;align=center;" parent="1" vertex="1">
          <mxGeometry x="1150" y="600" width="100" height="40" as="geometry" />
        </mxCell>
        <mxCell id="BLztsqFxMzqI4fTjxYnj-72" value="" style="line;strokeWidth=1;rotatable=0;dashed=0;labelPosition=right;align=left;verticalAlign=middle;spacingTop=0;spacingLeft=6;points=[];portConstraint=eastwest;" parent="1" vertex="1">
          <mxGeometry x="1000" y="555" width="60" height="10" as="geometry" />
        </mxCell>
        <mxCell id="BLztsqFxMzqI4fTjxYnj-74" value="" style="ellipse;whiteSpace=wrap;html=1;aspect=fixed;" parent="1" vertex="1">
          <mxGeometry x="1100" y="555" width="10" height="10" as="geometry" />
        </mxCell>
        <mxCell id="BLztsqFxMzqI4fTjxYnj-77" value="" style="verticalLabelPosition=bottom;verticalAlign=top;html=1;shape=mxgraph.basic.arc;startAngle=0.3;endAngle=0.1;rotation=-165;" parent="1" vertex="1">
          <mxGeometry x="1125" y="530" width="45" height="60" as="geometry" />
        </mxCell>
        <mxCell id="BLztsqFxMzqI4fTjxYnj-78" value="" style="endArrow=none;html=1;rounded=0;entryX=0.5;entryY=0;entryDx=0;entryDy=0;" parent="1" target="BLztsqFxMzqI4fTjxYnj-62" edge="1">
          <mxGeometry relative="1" as="geometry">
            <mxPoint x="1140" y="560" as="sourcePoint" />
            <mxPoint x="1210" y="630" as="targetPoint" />
          </mxGeometry>
        </mxCell>
        <mxCell id="BLztsqFxMzqI4fTjxYnj-79" value="" style="endArrow=none;html=1;rounded=0;exitX=0.6;exitY=1;exitDx=0;exitDy=0;exitPerimeter=0;" parent="1" source="BLztsqFxMzqI4fTjxYnj-61" edge="1">
          <mxGeometry relative="1" as="geometry">
            <mxPoint x="720" y="560" as="sourcePoint" />
            <mxPoint x="1140" y="560" as="targetPoint" />
          </mxGeometry>
        </mxCell>
        <mxCell id="BLztsqFxMzqI4fTjxYnj-81" value="Nombre" style="ellipse;whiteSpace=wrap;html=1;align=center;" parent="1" vertex="1">
          <mxGeometry x="900" y="340" width="100" height="40" as="geometry" />
        </mxCell>
        <mxCell id="BLztsqFxMzqI4fTjxYnj-83" value="Cod_proyecto" style="ellipse;whiteSpace=wrap;html=1;align=center;fontStyle=4;" parent="1" vertex="1">
          <mxGeometry x="-20" y="540" width="100" height="40" as="geometry" />
        </mxCell>
        <mxCell id="BLztsqFxMzqI4fTjxYnj-84" value="" style="endArrow=none;html=1;rounded=0;exitX=1;exitY=0.5;exitDx=0;exitDy=0;" parent="1" source="BLztsqFxMzqI4fTjxYnj-49" edge="1">
          <mxGeometry relative="1" as="geometry">
            <mxPoint x="70" y="400" as="sourcePoint" />
            <mxPoint x="140" y="480" as="targetPoint" />
          </mxGeometry>
        </mxCell>
        <mxCell id="BLztsqFxMzqI4fTjxYnj-85" value="" style="endArrow=none;html=1;rounded=0;exitX=1;exitY=0.5;exitDx=0;exitDy=0;" parent="1" source="BLztsqFxMzqI4fTjxYnj-83" edge="1">
          <mxGeometry relative="1" as="geometry">
            <mxPoint x="100" y="570" as="sourcePoint" />
            <mxPoint x="140" y="480" as="targetPoint" />
          </mxGeometry>
        </mxCell>
        <mxCell id="BLztsqFxMzqI4fTjxYnj-87" value="" style="endArrow=classic;html=1;rounded=0;exitX=0;exitY=0.5;exitDx=0;exitDy=0;" parent="1" source="BLztsqFxMzqI4fTjxYnj-88" edge="1">
          <mxGeometry width="50" height="50" relative="1" as="geometry">
            <mxPoint x="-320" y="540" as="sourcePoint" />
            <mxPoint x="-110" y="500" as="targetPoint" />
          </mxGeometry>
        </mxCell>
        <mxCell id="BLztsqFxMzqI4fTjxYnj-89" value="" style="endArrow=classic;html=1;rounded=0;exitX=0;exitY=0.5;exitDx=0;exitDy=0;" parent="1" source="BLztsqFxMzqI4fTjxYnj-88" edge="1">
          <mxGeometry width="50" height="50" relative="1" as="geometry">
            <mxPoint x="-20" y="500" as="sourcePoint" />
            <mxPoint x="-50" y="500" as="targetPoint" />
          </mxGeometry>
        </mxCell>
        <mxCell id="BLztsqFxMzqI4fTjxYnj-90" value="" style="endArrow=classic;html=1;rounded=0;exitX=0;exitY=0.5;exitDx=0;exitDy=0;entryX=0;entryY=0.5;entryDx=0;entryDy=0;" parent="1" source="BLztsqFxMzqI4fTjxYnj-50" target="BLztsqFxMzqI4fTjxYnj-88" edge="1">
          <mxGeometry width="50" height="50" relative="1" as="geometry">
            <mxPoint x="-20" y="500" as="sourcePoint" />
            <mxPoint x="-30" y="500" as="targetPoint" />
          </mxGeometry>
        </mxCell>
        <mxCell id="BLztsqFxMzqI4fTjxYnj-88" value="" style="ellipse;whiteSpace=wrap;html=1;aspect=fixed;" parent="1" vertex="1">
          <mxGeometry x="-70" y="485" width="30" height="30" as="geometry" />
        </mxCell>
        <mxCell id="BLztsqFxMzqI4fTjxYnj-91" value="Congreso&amp;nbsp;" style="whiteSpace=wrap;html=1;align=center;" parent="1" vertex="1">
          <mxGeometry x="-240" y="360" width="100" height="40" as="geometry" />
        </mxCell>
        <mxCell id="BLztsqFxMzqI4fTjxYnj-92" value="Revista" style="whiteSpace=wrap;html=1;align=center;" parent="1" vertex="1">
          <mxGeometry x="-240" y="600" width="100" height="40" as="geometry" />
        </mxCell>
        <mxCell id="BLztsqFxMzqI4fTjxYnj-93" value="Fecha_fin" style="ellipse;whiteSpace=wrap;html=1;align=center;" parent="1" vertex="1">
          <mxGeometry x="-430" y="360" width="100" height="40" as="geometry" />
        </mxCell>
        <mxCell id="BLztsqFxMzqI4fTjxYnj-94" value="Pais" style="ellipse;whiteSpace=wrap;html=1;align=center;" parent="1" vertex="1">
          <mxGeometry x="-430" y="460" width="100" height="40" as="geometry" />
        </mxCell>
        <mxCell id="BLztsqFxMzqI4fTjxYnj-95" value="Lugar" style="ellipse;whiteSpace=wrap;html=1;align=center;" parent="1" vertex="1">
          <mxGeometry x="-430" y="410" width="100" height="40" as="geometry" />
        </mxCell>
        <mxCell id="BLztsqFxMzqI4fTjxYnj-96" value="Editorial&amp;nbsp;" style="ellipse;whiteSpace=wrap;html=1;align=center;" parent="1" vertex="1">
          <mxGeometry x="-430" y="500" width="100" height="40" as="geometry" />
        </mxCell>
        <mxCell id="BLztsqFxMzqI4fTjxYnj-97" value="Nombre" style="ellipse;whiteSpace=wrap;html=1;align=center;" parent="1" vertex="1">
          <mxGeometry x="-430" y="210" width="100" height="40" as="geometry" />
        </mxCell>
        <mxCell id="BLztsqFxMzqI4fTjxYnj-98" value="Fecha_inicio" style="ellipse;whiteSpace=wrap;html=1;align=center;" parent="1" vertex="1">
          <mxGeometry x="-430" y="310" width="100" height="40" as="geometry" />
        </mxCell>
        <mxCell id="BLztsqFxMzqI4fTjxYnj-99" value="Tipo" style="ellipse;whiteSpace=wrap;html=1;align=center;" parent="1" vertex="1">
          <mxGeometry x="-430" y="260" width="100" height="40" as="geometry" />
        </mxCell>
        <mxCell id="BLztsqFxMzqI4fTjxYnj-101" value="Internacional&amp;nbsp;" style="ellipse;whiteSpace=wrap;html=1;align=center;" parent="1" vertex="1">
          <mxGeometry x="-560" y="290" width="100" height="40" as="geometry" />
        </mxCell>
        <mxCell id="BLztsqFxMzqI4fTjxYnj-102" value="Nacional" style="ellipse;whiteSpace=wrap;html=1;align=center;" parent="1" vertex="1">
          <mxGeometry x="-560" y="230" width="100" height="40" as="geometry" />
        </mxCell>
        <mxCell id="BLztsqFxMzqI4fTjxYnj-103" value="" style="endArrow=none;dashed=1;html=1;rounded=0;exitX=1;exitY=0.5;exitDx=0;exitDy=0;" parent="1" source="BLztsqFxMzqI4fTjxYnj-102" edge="1">
          <mxGeometry width="50" height="50" relative="1" as="geometry">
            <mxPoint x="-300" y="460" as="sourcePoint" />
            <mxPoint x="-430" y="280" as="targetPoint" />
          </mxGeometry>
        </mxCell>
        <mxCell id="BLztsqFxMzqI4fTjxYnj-104" value="" style="endArrow=none;dashed=1;html=1;rounded=0;exitX=1;exitY=0.5;exitDx=0;exitDy=0;entryX=0;entryY=0.5;entryDx=0;entryDy=0;" parent="1" source="BLztsqFxMzqI4fTjxYnj-101" target="BLztsqFxMzqI4fTjxYnj-99" edge="1">
          <mxGeometry width="50" height="50" relative="1" as="geometry">
            <mxPoint x="-300" y="460" as="sourcePoint" />
            <mxPoint x="-250" y="410" as="targetPoint" />
          </mxGeometry>
        </mxCell>
        <mxCell id="BLztsqFxMzqI4fTjxYnj-105" value="" style="endArrow=none;html=1;rounded=0;exitX=1;exitY=0.5;exitDx=0;exitDy=0;" parent="1" source="BLztsqFxMzqI4fTjxYnj-95" edge="1">
          <mxGeometry relative="1" as="geometry">
            <mxPoint x="-320" y="420" as="sourcePoint" />
            <mxPoint x="-240" y="380" as="targetPoint" />
          </mxGeometry>
        </mxCell>
        <mxCell id="BLztsqFxMzqI4fTjxYnj-106" value="" style="endArrow=none;html=1;rounded=0;exitX=1;exitY=0.5;exitDx=0;exitDy=0;" parent="1" source="BLztsqFxMzqI4fTjxYnj-98" edge="1">
          <mxGeometry relative="1" as="geometry">
            <mxPoint x="-320" y="380" as="sourcePoint" />
            <mxPoint x="-240" y="380" as="targetPoint" />
          </mxGeometry>
        </mxCell>
        <mxCell id="BLztsqFxMzqI4fTjxYnj-107" value="" style="endArrow=none;html=1;rounded=0;entryX=1;entryY=0.5;entryDx=0;entryDy=0;" parent="1" target="BLztsqFxMzqI4fTjxYnj-97" edge="1">
          <mxGeometry relative="1" as="geometry">
            <mxPoint x="-240" y="380" as="sourcePoint" />
            <mxPoint x="-190" y="430" as="targetPoint" />
          </mxGeometry>
        </mxCell>
        <mxCell id="BLztsqFxMzqI4fTjxYnj-108" value="" style="endArrow=none;html=1;rounded=0;exitX=1;exitY=0.5;exitDx=0;exitDy=0;" parent="1" source="BLztsqFxMzqI4fTjxYnj-92" edge="1">
          <mxGeometry relative="1" as="geometry">
            <mxPoint x="-140" y="610" as="sourcePoint" />
            <mxPoint x="-110" y="500" as="targetPoint" />
          </mxGeometry>
        </mxCell>
        <mxCell id="BLztsqFxMzqI4fTjxYnj-109" value="" style="endArrow=none;html=1;rounded=0;exitX=1;exitY=0.5;exitDx=0;exitDy=0;" parent="1" source="BLztsqFxMzqI4fTjxYnj-91" edge="1">
          <mxGeometry relative="1" as="geometry">
            <mxPoint x="-300" y="520" as="sourcePoint" />
            <mxPoint x="-110" y="500" as="targetPoint" />
          </mxGeometry>
        </mxCell>
        <mxCell id="BLztsqFxMzqI4fTjxYnj-110" value="" style="endArrow=none;html=1;rounded=0;" parent="1" edge="1">
          <mxGeometry relative="1" as="geometry">
            <mxPoint x="-330" y="279.59999999999997" as="sourcePoint" />
            <mxPoint x="-240" y="380" as="targetPoint" />
          </mxGeometry>
        </mxCell>
        <mxCell id="BLztsqFxMzqI4fTjxYnj-111" value="" style="endArrow=none;html=1;rounded=0;" parent="1" edge="1">
          <mxGeometry relative="1" as="geometry">
            <mxPoint x="-330" y="479.2" as="sourcePoint" />
            <mxPoint x="-240" y="380" as="targetPoint" />
          </mxGeometry>
        </mxCell>
        <mxCell id="BLztsqFxMzqI4fTjxYnj-112" value="" style="endArrow=none;html=1;rounded=0;entryX=0;entryY=0.5;entryDx=0;entryDy=0;" parent="1" target="BLztsqFxMzqI4fTjxYnj-91" edge="1">
          <mxGeometry relative="1" as="geometry">
            <mxPoint x="-330" y="520" as="sourcePoint" />
            <mxPoint x="-170" y="520" as="targetPoint" />
          </mxGeometry>
        </mxCell>
        <mxCell id="BLztsqFxMzqI4fTjxYnj-114" value="" style="edgeStyle=orthogonalEdgeStyle;rounded=0;orthogonalLoop=1;jettySize=auto;html=1;" parent="1" target="BLztsqFxMzqI4fTjxYnj-91" edge="1">
          <mxGeometry relative="1" as="geometry">
            <mxPoint x="-250" y="385" as="sourcePoint" />
            <Array as="points">
              <mxPoint x="-210" y="385" />
              <mxPoint x="-210" y="385" />
            </Array>
          </mxGeometry>
        </mxCell>
        <mxCell id="BLztsqFxMzqI4fTjxYnj-115" value="" style="endArrow=none;html=1;rounded=0;exitX=1;exitY=0.5;exitDx=0;exitDy=0;" parent="1" source="BLztsqFxMzqI4fTjxYnj-93" edge="1">
          <mxGeometry relative="1" as="geometry">
            <mxPoint x="-350" y="320" as="sourcePoint" />
            <mxPoint x="-240" y="380" as="targetPoint" />
          </mxGeometry>
        </mxCell>
        <mxCell id="BLztsqFxMzqI4fTjxYnj-116" value="Editorial&amp;nbsp;" style="ellipse;whiteSpace=wrap;html=1;align=center;" parent="1" vertex="1">
          <mxGeometry x="-430" y="610" width="100" height="40" as="geometry" />
        </mxCell>
        <mxCell id="BLztsqFxMzqI4fTjxYnj-117" value="Nombre" style="ellipse;whiteSpace=wrap;html=1;align=center;" parent="1" vertex="1">
          <mxGeometry x="-430" y="560" width="100" height="40" as="geometry" />
        </mxCell>
        <mxCell id="BLztsqFxMzqI4fTjxYnj-119" value="Pagina_inicio" style="ellipse;whiteSpace=wrap;html=1;align=center;" parent="1" vertex="1">
          <mxGeometry x="-430" y="760" width="100" height="40" as="geometry" />
        </mxCell>
        <mxCell id="BLztsqFxMzqI4fTjxYnj-120" value="Pagina_fin" style="ellipse;whiteSpace=wrap;html=1;align=center;" parent="1" vertex="1">
          <mxGeometry x="-430" y="810" width="100" height="40" as="geometry" />
        </mxCell>
        <mxCell id="BLztsqFxMzqI4fTjxYnj-121" value="" style="endArrow=none;html=1;rounded=0;" parent="1" edge="1">
          <mxGeometry relative="1" as="geometry">
            <mxPoint x="-330" y="779.5" as="sourcePoint" />
            <mxPoint x="-240" y="620" as="targetPoint" />
          </mxGeometry>
        </mxCell>
        <mxCell id="BLztsqFxMzqI4fTjxYnj-122" value="" style="endArrow=none;html=1;rounded=0;" parent="1" edge="1">
          <mxGeometry relative="1" as="geometry">
            <mxPoint x="-330" y="830" as="sourcePoint" />
            <mxPoint x="-240" y="620" as="targetPoint" />
          </mxGeometry>
        </mxCell>
        <mxCell id="BLztsqFxMzqI4fTjxYnj-123" value="" style="endArrow=none;html=1;rounded=0;exitX=1;exitY=0.5;exitDx=0;exitDy=0;" parent="1" source="BLztsqFxMzqI4fTjxYnj-47" edge="1">
          <mxGeometry relative="1" as="geometry">
            <mxPoint x="-180" y="550" as="sourcePoint" />
            <mxPoint x="-240" y="620" as="targetPoint" />
          </mxGeometry>
        </mxCell>
        <mxCell id="BLztsqFxMzqI4fTjxYnj-124" value="" style="endArrow=none;html=1;rounded=0;exitX=1;exitY=0.5;exitDx=0;exitDy=0;" parent="1" source="BLztsqFxMzqI4fTjxYnj-46" edge="1">
          <mxGeometry relative="1" as="geometry">
            <mxPoint x="140" y="430" as="sourcePoint" />
            <mxPoint x="-240" y="620" as="targetPoint" />
          </mxGeometry>
        </mxCell>
        <mxCell id="BLztsqFxMzqI4fTjxYnj-125" value="" style="endArrow=none;html=1;rounded=0;exitX=1;exitY=0.5;exitDx=0;exitDy=0;" parent="1" source="BLztsqFxMzqI4fTjxYnj-116" edge="1">
          <mxGeometry relative="1" as="geometry">
            <mxPoint x="-320" y="630" as="sourcePoint" />
            <mxPoint x="-240" y="620" as="targetPoint" />
          </mxGeometry>
        </mxCell>
        <mxCell id="BLztsqFxMzqI4fTjxYnj-126" value="" style="endArrow=none;html=1;rounded=0;entryX=0;entryY=0.5;entryDx=0;entryDy=0;" parent="1" target="BLztsqFxMzqI4fTjxYnj-92" edge="1">
          <mxGeometry relative="1" as="geometry">
            <mxPoint x="-330" y="580" as="sourcePoint" />
            <mxPoint x="-170" y="580" as="targetPoint" />
          </mxGeometry>
        </mxCell>
        <mxCell id="BLztsqFxMzqI4fTjxYnj-130" value="Linea_investigacion" style="whiteSpace=wrap;html=1;align=center;" parent="1" vertex="1">
          <mxGeometry x="440" y="770" width="120" height="40" as="geometry" />
        </mxCell>
        <mxCell id="BLztsqFxMzqI4fTjxYnj-131" value="Con_descriptores" style="ellipse;whiteSpace=wrap;html=1;align=center;" parent="1" vertex="1">
          <mxGeometry x="610" y="860" width="100" height="40" as="geometry" />
        </mxCell>
        <mxCell id="BLztsqFxMzqI4fTjxYnj-132" value="Nombre" style="ellipse;whiteSpace=wrap;html=1;align=center;" parent="1" vertex="1">
          <mxGeometry x="450" y="860" width="100" height="40" as="geometry" />
        </mxCell>
        <mxCell id="BLztsqFxMzqI4fTjxYnj-133" value="&lt;u&gt;Código&amp;nbsp;&lt;/u&gt;" style="ellipse;whiteSpace=wrap;html=1;align=center;" parent="1" vertex="1">
          <mxGeometry x="290" y="860" width="100" height="40" as="geometry" />
        </mxCell>
        <mxCell id="BLztsqFxMzqI4fTjxYnj-134" value="" style="endArrow=none;html=1;rounded=0;entryX=0.5;entryY=0;entryDx=0;entryDy=0;" parent="1" edge="1" target="BLztsqFxMzqI4fTjxYnj-132">
          <mxGeometry relative="1" as="geometry">
            <mxPoint x="500" y="810" as="sourcePoint" />
            <mxPoint x="550" y="990" as="targetPoint" />
          </mxGeometry>
        </mxCell>
        <mxCell id="BLztsqFxMzqI4fTjxYnj-135" value="" style="endArrow=none;html=1;rounded=0;entryX=0.5;entryY=0;entryDx=0;entryDy=0;" parent="1" edge="1" target="BLztsqFxMzqI4fTjxYnj-131">
          <mxGeometry relative="1" as="geometry">
            <mxPoint x="500" y="810" as="sourcePoint" />
            <mxPoint x="630" y="1040" as="targetPoint" />
          </mxGeometry>
        </mxCell>
        <mxCell id="BLztsqFxMzqI4fTjxYnj-136" value="" style="endArrow=none;html=1;rounded=0;exitX=0.5;exitY=0;exitDx=0;exitDy=0;entryX=0.5;entryY=1;entryDx=0;entryDy=0;" parent="1" edge="1" target="BLztsqFxMzqI4fTjxYnj-130" source="BLztsqFxMzqI4fTjxYnj-133">
          <mxGeometry relative="1" as="geometry">
            <mxPoint x="350" y="850" as="sourcePoint" />
            <mxPoint x="550" y="990" as="targetPoint" />
          </mxGeometry>
        </mxCell>
        <mxCell id="BBhIwU2_k-wOgfItX2o9-2" value="Supervisa" style="shape=rhombus;perimeter=rhombusPerimeter;whiteSpace=wrap;html=1;align=center;" vertex="1" parent="1">
          <mxGeometry x="1330" y="530" width="120" height="60" as="geometry" />
        </mxCell>
        <mxCell id="BBhIwU2_k-wOgfItX2o9-3" value="Escribe" style="shape=rhombus;perimeter=rhombusPerimeter;whiteSpace=wrap;html=1;align=center;" vertex="1" parent="1">
          <mxGeometry x="430" y="450" width="120" height="60" as="geometry" />
        </mxCell>
        <mxCell id="BBhIwU2_k-wOgfItX2o9-4" value="Participa_en" style="shape=rhombus;perimeter=rhombusPerimeter;whiteSpace=wrap;html=1;align=center;" vertex="1" parent="1">
          <mxGeometry x="440" y="300" width="120" height="60" as="geometry" />
        </mxCell>
        <mxCell id="BBhIwU2_k-wOgfItX2o9-5" value="Cubre" style="shape=rhombus;perimeter=rhombusPerimeter;whiteSpace=wrap;html=1;align=center;" vertex="1" parent="1">
          <mxGeometry x="440" y="690" width="120" height="60" as="geometry" />
        </mxCell>
        <mxCell id="BBhIwU2_k-wOgfItX2o9-6" value="Escribe_en_linea" style="shape=rhombus;perimeter=rhombusPerimeter;whiteSpace=wrap;html=1;align=center;" vertex="1" parent="1">
          <mxGeometry x="430" y="555" width="120" height="60" as="geometry" />
        </mxCell>
        <mxCell id="BBhIwU2_k-wOgfItX2o9-7" value="Si_participa" style="shape=rhombus;perimeter=rhombusPerimeter;whiteSpace=wrap;html=1;align=center;" vertex="1" parent="1">
          <mxGeometry x="620" y="600" width="120" height="60" as="geometry" />
        </mxCell>
        <mxCell id="BBhIwU2_k-wOgfItX2o9-8" value="" style="endArrow=classic;html=1;rounded=0;exitX=0;exitY=0.5;exitDx=0;exitDy=0;entryX=1;entryY=0.5;entryDx=0;entryDy=0;" edge="1" parent="1" source="BLztsqFxMzqI4fTjxYnj-23" target="BBhIwU2_k-wOgfItX2o9-4">
          <mxGeometry width="50" height="50" relative="1" as="geometry">
            <mxPoint x="470" y="430" as="sourcePoint" />
            <mxPoint x="520" y="390" as="targetPoint" />
          </mxGeometry>
        </mxCell>
        <mxCell id="BBhIwU2_k-wOgfItX2o9-9" value="" style="endArrow=classic;html=1;rounded=0;" edge="1" parent="1">
          <mxGeometry width="50" height="50" relative="1" as="geometry">
            <mxPoint x="500" y="200" as="sourcePoint" />
            <mxPoint x="500" y="300" as="targetPoint" />
          </mxGeometry>
        </mxCell>
        <mxCell id="BBhIwU2_k-wOgfItX2o9-10" value="N:N" style="text;html=1;align=center;verticalAlign=middle;resizable=0;points=[];autosize=1;strokeColor=none;fillColor=none;" vertex="1" parent="1">
          <mxGeometry x="460" y="280" width="40" height="30" as="geometry" />
        </mxCell>
        <mxCell id="BBhIwU2_k-wOgfItX2o9-11" value="" style="endArrow=none;html=1;rounded=0;exitX=0.5;exitY=1;exitDx=0;exitDy=0;" edge="1" parent="1" source="BLztsqFxMzqI4fTjxYnj-3">
          <mxGeometry width="50" height="50" relative="1" as="geometry">
            <mxPoint x="470" y="290" as="sourcePoint" />
            <mxPoint x="500" y="160" as="targetPoint" />
          </mxGeometry>
        </mxCell>
        <mxCell id="BBhIwU2_k-wOgfItX2o9-12" value="" style="endArrow=none;html=1;rounded=0;entryX=0.5;entryY=1;entryDx=0;entryDy=0;entryPerimeter=0;" edge="1" parent="1" target="BLztsqFxMzqI4fTjxYnj-6">
          <mxGeometry width="50" height="50" relative="1" as="geometry">
            <mxPoint x="500" y="160" as="sourcePoint" />
            <mxPoint x="550" y="110" as="targetPoint" />
          </mxGeometry>
        </mxCell>
        <mxCell id="BBhIwU2_k-wOgfItX2o9-15" value="Fecha_inicio" style="shape=ext;margin=3;double=1;whiteSpace=wrap;html=1;align=center;" vertex="1" parent="1">
          <mxGeometry x="280" y="280" width="100" height="40" as="geometry" />
        </mxCell>
        <mxCell id="BBhIwU2_k-wOgfItX2o9-16" value="Fecha_Fin" style="shape=ext;margin=3;double=1;whiteSpace=wrap;html=1;align=center;" vertex="1" parent="1">
          <mxGeometry x="280" y="340" width="100" height="40" as="geometry" />
        </mxCell>
        <mxCell id="BBhIwU2_k-wOgfItX2o9-19" value="" style="endArrow=none;html=1;rounded=0;entryX=0;entryY=0.5;entryDx=0;entryDy=0;" edge="1" parent="1" target="BBhIwU2_k-wOgfItX2o9-4">
          <mxGeometry relative="1" as="geometry">
            <mxPoint x="380" y="359.5" as="sourcePoint" />
            <mxPoint x="540" y="359.5" as="targetPoint" />
          </mxGeometry>
        </mxCell>
        <mxCell id="BBhIwU2_k-wOgfItX2o9-23" value="" style="endArrow=none;html=1;rounded=0;entryX=0;entryY=1;entryDx=0;entryDy=0;" edge="1" parent="1" target="BBhIwU2_k-wOgfItX2o9-4">
          <mxGeometry relative="1" as="geometry">
            <mxPoint x="380" y="299.5" as="sourcePoint" />
            <mxPoint x="540" y="299.5" as="targetPoint" />
          </mxGeometry>
        </mxCell>
        <mxCell id="BBhIwU2_k-wOgfItX2o9-25" value="Investigador principal&amp;nbsp;" style="ellipse;whiteSpace=wrap;html=1;align=center;" vertex="1" parent="1">
          <mxGeometry x="770" y="310" width="100" height="40" as="geometry" />
        </mxCell>
        <mxCell id="BBhIwU2_k-wOgfItX2o9-26" value="&lt;font style=&quot;color: light-dark(rgb(0, 0, 0), rgb(255, 0, 0));&quot;&gt;Debe_ser&lt;/font&gt;" style="shape=rhombus;perimeter=rhombusPerimeter;whiteSpace=wrap;html=1;align=center;fillColor=light-dark(#FFFFFF,#FFFFFF);" vertex="1" parent="1">
          <mxGeometry x="610" y="300" width="120" height="60" as="geometry" />
        </mxCell>
        <mxCell id="BBhIwU2_k-wOgfItX2o9-27" value="" style="endArrow=none;html=1;rounded=0;entryX=0.083;entryY=0.5;entryDx=0;entryDy=0;entryPerimeter=0;" edge="1" parent="1" target="BBhIwU2_k-wOgfItX2o9-26">
          <mxGeometry relative="1" as="geometry">
            <mxPoint x="560" y="330" as="sourcePoint" />
            <mxPoint x="780" y="380" as="targetPoint" />
            <Array as="points">
              <mxPoint x="580" y="330" />
            </Array>
          </mxGeometry>
        </mxCell>
        <mxCell id="BBhIwU2_k-wOgfItX2o9-28" value="" style="endArrow=none;html=1;rounded=0;exitX=1;exitY=0.5;exitDx=0;exitDy=0;" edge="1" parent="1" source="BBhIwU2_k-wOgfItX2o9-26" target="BBhIwU2_k-wOgfItX2o9-25">
          <mxGeometry relative="1" as="geometry">
            <mxPoint x="650" y="430" as="sourcePoint" />
            <mxPoint x="810" y="430" as="targetPoint" />
          </mxGeometry>
        </mxCell>
        <mxCell id="BBhIwU2_k-wOgfItX2o9-29" value="" style="endArrow=none;html=1;rounded=0;entryX=0.5;entryY=0;entryDx=0;entryDy=0;exitX=1;exitY=0.5;exitDx=0;exitDy=0;" edge="1" parent="1" source="BBhIwU2_k-wOgfItX2o9-25" target="BLztsqFxMzqI4fTjxYnj-61">
          <mxGeometry relative="1" as="geometry">
            <mxPoint x="650" y="430" as="sourcePoint" />
            <mxPoint x="810" y="430" as="targetPoint" />
          </mxGeometry>
        </mxCell>
        <mxCell id="BBhIwU2_k-wOgfItX2o9-30" value="" style="endArrow=classic;html=1;rounded=0;entryX=1;entryY=0.5;entryDx=0;entryDy=0;" edge="1" parent="1" target="BLztsqFxMzqI4fTjxYnj-62">
          <mxGeometry width="50" height="50" relative="1" as="geometry">
            <mxPoint x="1330" y="560" as="sourcePoint" />
            <mxPoint x="1020" y="410" as="targetPoint" />
          </mxGeometry>
        </mxCell>
        <mxCell id="BBhIwU2_k-wOgfItX2o9-31" value="" style="endArrow=classic;html=1;rounded=0;exitX=1;exitY=0.5;exitDx=0;exitDy=0;entryX=0;entryY=0.5;entryDx=0;entryDy=0;" edge="1" parent="1" source="BLztsqFxMzqI4fTjxYnj-61" target="BBhIwU2_k-wOgfItX2o9-2">
          <mxGeometry width="50" height="50" relative="1" as="geometry">
            <mxPoint x="970" y="460" as="sourcePoint" />
            <mxPoint x="1020" y="410" as="targetPoint" />
          </mxGeometry>
        </mxCell>
        <mxCell id="BBhIwU2_k-wOgfItX2o9-32" value="1:N" style="text;html=1;align=center;verticalAlign=middle;resizable=0;points=[];autosize=1;strokeColor=none;fillColor=none;" vertex="1" parent="1">
          <mxGeometry x="1371" y="498" width="40" height="30" as="geometry" />
        </mxCell>
        <mxCell id="BBhIwU2_k-wOgfItX2o9-33" value="F_fin" style="shape=ext;margin=3;double=1;whiteSpace=wrap;html=1;align=center;" vertex="1" parent="1">
          <mxGeometry x="1480" y="570" width="100" height="40" as="geometry" />
        </mxCell>
        <mxCell id="BBhIwU2_k-wOgfItX2o9-34" value="F_inicio" style="shape=ext;margin=3;double=1;whiteSpace=wrap;html=1;align=center;" vertex="1" parent="1">
          <mxGeometry x="1480" y="510" width="100" height="40" as="geometry" />
        </mxCell>
        <mxCell id="BBhIwU2_k-wOgfItX2o9-36" value="" style="endArrow=none;html=1;rounded=0;entryX=0;entryY=0.5;entryDx=0;entryDy=0;" edge="1" parent="1" target="BBhIwU2_k-wOgfItX2o9-33">
          <mxGeometry relative="1" as="geometry">
            <mxPoint x="1450" y="560" as="sourcePoint" />
            <mxPoint x="1400" y="600" as="targetPoint" />
          </mxGeometry>
        </mxCell>
        <mxCell id="BBhIwU2_k-wOgfItX2o9-38" value="" style="endArrow=none;html=1;rounded=0;entryX=0;entryY=0.5;entryDx=0;entryDy=0;" edge="1" parent="1" target="BBhIwU2_k-wOgfItX2o9-34">
          <mxGeometry relative="1" as="geometry">
            <mxPoint x="1450" y="560" as="sourcePoint" />
            <mxPoint x="1400" y="600" as="targetPoint" />
          </mxGeometry>
        </mxCell>
        <mxCell id="BBhIwU2_k-wOgfItX2o9-40" value="" style="endArrow=classic;html=1;rounded=0;entryX=1;entryY=0.5;entryDx=0;entryDy=0;" edge="1" parent="1" target="BLztsqFxMzqI4fTjxYnj-130">
          <mxGeometry width="50" height="50" relative="1" as="geometry">
            <mxPoint x="740" y="630" as="sourcePoint" />
            <mxPoint x="630" y="710" as="targetPoint" />
          </mxGeometry>
        </mxCell>
        <mxCell id="BBhIwU2_k-wOgfItX2o9-41" value="" style="endArrow=classic;html=1;rounded=0;exitX=1;exitY=0.5;exitDx=0;exitDy=0;" edge="1" parent="1" source="BLztsqFxMzqI4fTjxYnj-45">
          <mxGeometry width="50" height="50" relative="1" as="geometry">
            <mxPoint x="430" y="590" as="sourcePoint" />
            <mxPoint x="430" y="480" as="targetPoint" />
          </mxGeometry>
        </mxCell>
        <mxCell id="BBhIwU2_k-wOgfItX2o9-42" value="" style="endArrow=classic;html=1;rounded=0;entryX=1;entryY=0.5;entryDx=0;entryDy=0;entryPerimeter=0;" edge="1" parent="1" target="BBhIwU2_k-wOgfItX2o9-3">
          <mxGeometry width="50" height="50" relative="1" as="geometry">
            <mxPoint x="760" y="480" as="sourcePoint" />
            <mxPoint x="480" y="540" as="targetPoint" />
          </mxGeometry>
        </mxCell>
        <mxCell id="BBhIwU2_k-wOgfItX2o9-44" value="" style="endArrow=classic;html=1;rounded=0;entryX=1;entryY=0.5;entryDx=0;entryDy=0;" edge="1" parent="1" target="BBhIwU2_k-wOgfItX2o9-7">
          <mxGeometry width="50" height="50" relative="1" as="geometry">
            <mxPoint x="760" y="480" as="sourcePoint" />
            <mxPoint x="680" y="590" as="targetPoint" />
          </mxGeometry>
        </mxCell>
        <mxCell id="BBhIwU2_k-wOgfItX2o9-45" value="1:1" style="text;html=1;align=center;verticalAlign=middle;resizable=0;points=[];autosize=1;strokeColor=none;fillColor=none;" vertex="1" parent="1">
          <mxGeometry x="750" y="605" width="40" height="30" as="geometry" />
        </mxCell>
        <mxCell id="BBhIwU2_k-wOgfItX2o9-46" value="" style="endArrow=classic;html=1;rounded=0;entryX=0.5;entryY=1;entryDx=0;entryDy=0;" edge="1" parent="1" target="BBhIwU2_k-wOgfItX2o9-3">
          <mxGeometry width="50" height="50" relative="1" as="geometry">
            <mxPoint x="620" y="630" as="sourcePoint" />
            <mxPoint x="480" y="620" as="targetPoint" />
          </mxGeometry>
        </mxCell>
        <mxCell id="BBhIwU2_k-wOgfItX2o9-47" value="N:N" style="text;html=1;align=center;verticalAlign=middle;resizable=0;points=[];autosize=1;strokeColor=none;fillColor=none;" vertex="1" parent="1">
          <mxGeometry x="470" y="425" width="40" height="30" as="geometry" />
        </mxCell>
        <mxCell id="BBhIwU2_k-wOgfItX2o9-48" value="" style="endArrow=classic;html=1;rounded=0;exitX=0.5;exitY=0;exitDx=0;exitDy=0;" edge="1" parent="1" source="BLztsqFxMzqI4fTjxYnj-130">
          <mxGeometry width="50" height="50" relative="1" as="geometry">
            <mxPoint x="430" y="730" as="sourcePoint" />
            <mxPoint x="500" y="750" as="targetPoint" />
          </mxGeometry>
        </mxCell>
        <mxCell id="BBhIwU2_k-wOgfItX2o9-49" value="" style="endArrow=classic;html=1;rounded=0;entryX=0.5;entryY=0;entryDx=0;entryDy=0;" edge="1" parent="1" target="BBhIwU2_k-wOgfItX2o9-5">
          <mxGeometry width="50" height="50" relative="1" as="geometry">
            <mxPoint x="240" y="480" as="sourcePoint" />
            <mxPoint x="440" y="670" as="targetPoint" />
          </mxGeometry>
        </mxCell>
        <mxCell id="BBhIwU2_k-wOgfItX2o9-51" value="N:N" style="text;html=1;align=center;verticalAlign=middle;resizable=0;points=[];autosize=1;strokeColor=none;fillColor=none;" vertex="1" parent="1">
          <mxGeometry x="491" y="658" width="40" height="30" as="geometry" />
        </mxCell>
        <mxCell id="BBhIwU2_k-wOgfItX2o9-52" value="" style="endArrow=classic;html=1;rounded=0;exitX=0.083;exitY=0.583;exitDx=0;exitDy=0;exitPerimeter=0;" edge="1" parent="1" source="BBhIwU2_k-wOgfItX2o9-6">
          <mxGeometry width="50" height="50" relative="1" as="geometry">
            <mxPoint x="430" y="680" as="sourcePoint" />
            <mxPoint x="240" y="480" as="targetPoint" />
          </mxGeometry>
        </mxCell>
        <mxCell id="BBhIwU2_k-wOgfItX2o9-53" value="" style="endArrow=classic;html=1;rounded=0;entryX=1;entryY=0.5;entryDx=0;entryDy=0;" edge="1" parent="1" target="BBhIwU2_k-wOgfItX2o9-6">
          <mxGeometry width="50" height="50" relative="1" as="geometry">
            <mxPoint x="760" y="480" as="sourcePoint" />
            <mxPoint x="480" y="630" as="targetPoint" />
          </mxGeometry>
        </mxCell>
        <mxCell id="BBhIwU2_k-wOgfItX2o9-54" value="N:1" style="text;html=1;align=center;verticalAlign=middle;resizable=0;points=[];autosize=1;strokeColor=none;fillColor=none;" vertex="1" parent="1">
          <mxGeometry x="470" y="525" width="40" height="30" as="geometry" />
        </mxCell>
        <mxCell id="BBhIwU2_k-wOgfItX2o9-55" value="" style="endArrow=classic;html=1;rounded=0;entryX=0.5;entryY=0;entryDx=0;entryDy=0;" edge="1" parent="1" target="BBhIwU2_k-wOgfItX2o9-57">
          <mxGeometry width="50" height="50" relative="1" as="geometry">
            <mxPoint x="240" y="480" as="sourcePoint" />
            <mxPoint x="370" y="650" as="targetPoint" />
          </mxGeometry>
        </mxCell>
        <mxCell id="BBhIwU2_k-wOgfItX2o9-57" value="Abarca" style="shape=rhombus;perimeter=rhombusPerimeter;whiteSpace=wrap;html=1;align=center;" vertex="1" parent="1">
          <mxGeometry x="310" y="658" width="120" height="60" as="geometry" />
        </mxCell>
        <mxCell id="BBhIwU2_k-wOgfItX2o9-58" value="" style="endArrow=classic;html=1;rounded=0;entryX=0.5;entryY=1;entryDx=0;entryDy=0;" edge="1" parent="1" target="BBhIwU2_k-wOgfItX2o9-57">
          <mxGeometry width="50" height="50" relative="1" as="geometry">
            <mxPoint x="500" y="770" as="sourcePoint" />
            <mxPoint x="460" y="590" as="targetPoint" />
          </mxGeometry>
        </mxCell>
        <mxCell id="BBhIwU2_k-wOgfItX2o9-59" value="N:N" style="text;html=1;align=center;verticalAlign=middle;resizable=0;points=[];autosize=1;strokeColor=none;fillColor=none;" vertex="1" parent="1">
          <mxGeometry x="330" y="635" width="40" height="30" as="geometry" />
        </mxCell>
      </root>
    </mxGraphModel>
  </diagram>
</mxfile>
